<mxfile host="app.diagrams.net" modified="2020-11-12T16:12:45.389Z" agent="5.0 (Windows NT 10.0; Win64; x64) AppleWebKit/537.36 (KHTML, like Gecko) Chrome/86.0.4240.183 Safari/537.36 Edg/86.0.622.63" etag="crm4AA_iChzrlwMVUcE0" version="13.9.7" type="github">
  <diagram id="70bfVvZdJQQgJL3tboRI" name="Page-1">
    <mxGraphModel dx="1208" dy="756" grid="1" gridSize="10" guides="1" tooltips="1" connect="1" arrows="1" fold="1" page="1" pageScale="1" pageWidth="827" pageHeight="1169" math="0" shadow="0">
      <root>
        <mxCell id="0" />
        <mxCell id="1" parent="0" />
        <mxCell id="ZdR_tYWf37mToOd-I0VG-1" value="Workflow Eingangspunkt (Main)" style="rounded=1;whiteSpace=wrap;html=1;fontSize=20;" vertex="1" parent="1">
          <mxGeometry x="270" y="200" width="210" height="120" as="geometry" />
        </mxCell>
        <mxCell id="ZdR_tYWf37mToOd-I0VG-2" value="Daten importieren und einfÃ¼gen&lt;br style=&quot;font-size: 20px;&quot;&gt;(welche)" style="rounded=1;whiteSpace=wrap;html=1;fontSize=20;" vertex="1" parent="1">
          <mxGeometry x="560" y="320" width="180" height="180" as="geometry" />
        </mxCell>
        <mxCell id="ZdR_tYWf37mToOd-I0VG-4" value="Berechtigen:&lt;br style=&quot;font-size: 20px;&quot;&gt;Ansicht, &lt;br style=&quot;font-size: 20px;&quot;&gt;bearbeiten&lt;br style=&quot;font-size: 20px;&quot;&gt;abbrechen&lt;br style=&quot;font-size: 20px;&quot;&gt;OK&lt;br style=&quot;font-size: 20px;&quot;&gt;&lt;br style=&quot;font-size: 20px;&quot;&gt;vergeben und&amp;nbsp;&lt;br style=&quot;font-size: 20px;&quot;&gt;sichtbar" style="rounded=1;whiteSpace=wrap;html=1;fontSize=20;" vertex="1" parent="1">
          <mxGeometry x="560" y="580" width="220" height="240" as="geometry" />
        </mxCell>
        <mxCell id="ZdR_tYWf37mToOd-I0VG-6" value="else if Start btn clicken" style="html=1;verticalAlign=bottom;endArrow=open;dashed=1;endSize=8;exitX=0.083;exitY=1;exitDx=0;exitDy=0;exitPerimeter=0;entryX=0;entryY=0.5;entryDx=0;entryDy=0;fontSize=20;" edge="1" parent="1" source="ZdR_tYWf37mToOd-I0VG-1" target="ZdR_tYWf37mToOd-I0VG-4">
          <mxGeometry x="0.0667" relative="1" as="geometry">
            <mxPoint x="302.96000000000004" y="331.98" as="sourcePoint" />
            <mxPoint x="350" y="420" as="targetPoint" />
            <Array as="points">
              <mxPoint x="300" y="700" />
            </Array>
            <mxPoint as="offset" />
          </mxGeometry>
        </mxCell>
        <mxCell id="ZdR_tYWf37mToOd-I0VG-8" value="else if abbrechen btn clicken" style="html=1;verticalAlign=bottom;endArrow=open;dashed=1;endSize=8;exitX=0.117;exitY=1.017;exitDx=0;exitDy=0;exitPerimeter=0;fontSize=20;entryX=0;entryY=0.5;entryDx=0;entryDy=0;" edge="1" parent="1" source="ZdR_tYWf37mToOd-I0VG-1" target="ZdR_tYWf37mToOd-I0VG-10">
          <mxGeometry x="0.5084" y="7" relative="1" as="geometry">
            <mxPoint x="306.96000000000004" y="330" as="sourcePoint" />
            <mxPoint x="354" y="758.98" as="targetPoint" />
            <Array as="points">
              <mxPoint x="310" y="1045" />
            </Array>
            <mxPoint as="offset" />
          </mxGeometry>
        </mxCell>
        <mxCell id="ZdR_tYWf37mToOd-I0VG-10" value="redirect&amp;nbsp;&lt;br style=&quot;font-size: 20px;&quot;&gt;benachriochten" style="rounded=1;whiteSpace=wrap;html=1;fontSize=20;" vertex="1" parent="1">
          <mxGeometry x="560" y="950" width="186" height="190" as="geometry" />
        </mxCell>
        <mxCell id="ZdR_tYWf37mToOd-I0VG-11" value="else if Submit btn clicken" style="html=1;verticalAlign=bottom;endArrow=open;dashed=1;endSize=8;exitX=0.105;exitY=1.008;exitDx=0;exitDy=0;exitPerimeter=0;fontSize=20;" edge="1" parent="1" source="ZdR_tYWf37mToOd-I0VG-1">
          <mxGeometry x="0.5084" y="7" relative="1" as="geometry">
            <mxPoint x="304.56999999999994" y="332.03999999999996" as="sourcePoint" />
            <mxPoint x="580" y="1330" as="targetPoint" />
            <Array as="points">
              <mxPoint x="292" y="1330" />
            </Array>
            <mxPoint as="offset" />
          </mxGeometry>
        </mxCell>
        <mxCell id="ZdR_tYWf37mToOd-I0VG-12" value="" style="rounded=1;whiteSpace=wrap;html=1;fontSize=20;" vertex="1" parent="1">
          <mxGeometry x="590" y="1300" width="120" height="60" as="geometry" />
        </mxCell>
        <mxCell id="ZdR_tYWf37mToOd-I0VG-13" value="if reinkommen" style="html=1;verticalAlign=bottom;endArrow=open;dashed=1;endSize=8;exitX=0.105;exitY=1;exitDx=0;exitDy=0;exitPerimeter=0;fontSize=20;entryX=0;entryY=0.5;entryDx=0;entryDy=0;" edge="1" parent="1" source="ZdR_tYWf37mToOd-I0VG-1" target="ZdR_tYWf37mToOd-I0VG-2">
          <mxGeometry x="0.0667" relative="1" as="geometry">
            <mxPoint x="287.43000000000006" y="30" as="sourcePoint" />
            <mxPoint x="570" y="410" as="targetPoint" />
            <Array as="points">
              <mxPoint x="300" y="410" />
            </Array>
            <mxPoint as="offset" />
          </mxGeometry>
        </mxCell>
      </root>
    </mxGraphModel>
  </diagram>
</mxfile>
